<svg width="18" height="18" viewBox="0 0 18 18" fill="none" xmlns="http://www.w3.org/2000/svg">
<path d="M16.8283 2.79417L15.5542 1.25417C15.3067 0.9425 14.9308 0.75 14.5 0.75H3.5C3.06917 0.75 2.69333 0.9425 2.43667 1.25417L1.17167 2.79417C0.905833 3.10583 0.75 3.51833 0.75 3.95833V15.4167C0.75 16.425 1.575 17.25 2.58333 17.25H15.4167C16.425 17.25 17.25 16.425 17.25 15.4167V3.95833C17.25 3.51833 17.0942 3.10583 16.8283 2.79417ZM9 14.0417L3.95833 9H7.16667V7.16667H10.8333V9H14.0417L9 14.0417ZM2.69333 2.58333L3.43583 1.66667H14.4358L15.2975 2.58333H2.69333Z" fill="#828282"/>
</svg>
