<svg width="1030" height="741" viewBox="0 0 1330 1041" fill="none" xmlns="http://www.w3.org/2000/svg">
<path d="M-108.972 677.043C-109.36 735.363 -105.676 788.84 -98.8412 836.135C-98.3564 839.69 -97.8235 843.245 -97.2418 846.697C-93.6544 869.726 -89.2921 891.21 -84.3477 911.045C-83.4753 914.445 -82.6025 917.794 -81.7302 921.091C-62.7289 991.673 -35.7292 1039.38 -6.93628 1057H1202.61C1202.61 1057 1305.72 961.998 1326.41 826.295C1326.95 822.843 1327.43 819.391 1327.82 815.888C1335.87 748.346 1322.92 671.427 1267.23 591.417C1241.83 554.993 1208.43 529.645 1170.09 512.18C1167.08 510.84 1164.13 509.552 1161.07 508.316C1104.21 484.668 1037.42 477.249 970.331 476.116C966.938 476.064 963.545 476.013 960.151 476.013C920.21 475.704 880.365 477.455 842.604 479.053C839.017 479.259 835.479 479.413 831.94 479.568C770.961 482.298 715.992 484.307 676.099 476.528H676.051C672.367 475.807 668.876 474.982 665.483 474.055H665.435C621.276 462.566 599.511 435.931 615.168 378.641C645.513 267.513 614.441 186.06 546.821 141.084C543.379 138.765 539.793 136.55 536.157 134.438C497.912 112.387 449.584 100.847 394.906 101.002C391.077 101.002 387.199 101.104 383.272 101.208C336.787 102.701 286.036 112.439 233.345 131.037C204.988 141.032 178.571 153.397 154.092 167.668C151.086 169.419 148.081 171.223 145.173 173.077C97.1842 202.547 56.806 239.744 23.3597 281.784C21.0814 284.566 18.9001 287.399 16.7188 290.285C-70.1937 404.143 -108.1 551.129 -108.972 677.043Z" fill="#E4EBF7"/>
<path d="M181.002 381.264H328.622" stroke="#3855E1" stroke-miterlimit="10"/>
<path d="M823.718 403.871H1078" stroke="#3855E1" stroke-miterlimit="10"/>
<path d="M788.354 325.597H841.409" stroke="#3855E1" stroke-miterlimit="10"/>
<path d="M121.886 374.437V346.696H75.5913V374.437C75.5913 384.901 82.5378 393.733 92.0677 396.598V406.295C82.5378 409.16 75.5913 417.993 75.5913 428.457V456.197H121.886V428.457C121.886 417.993 114.94 409.16 105.409 406.295V396.598C114.94 393.733 121.886 384.901 121.886 374.437Z" fill="white" stroke="#3855E1" stroke-miterlimit="10"/>
<path d="M125.181 346.696H72.2961C69.5062 346.696 67.2441 344.434 67.2441 341.644C67.2441 338.854 69.5062 336.592 72.2961 336.592H125.181C127.971 336.592 130.233 338.854 130.233 341.644C130.233 344.434 127.971 346.696 125.181 346.696Z" fill="white" stroke="#3855E1" stroke-miterlimit="10"/>
<path d="M125.181 466.301H72.2961C69.5062 466.301 67.2441 464.04 67.2441 461.249C67.2441 458.459 69.5062 456.197 72.2961 456.197H125.181C127.971 456.197 130.233 458.459 130.233 461.249C130.233 464.04 127.971 466.301 125.181 466.301Z" fill="white" stroke="#3855E1" stroke-miterlimit="10"/>
<path d="M84.3008 449.523L98.7386 435.085L113.177 449.523H84.3008Z" fill="white" stroke="#3855E1" stroke-miterlimit="10" stroke-linejoin="round"/>
<path d="M84.3008 371.757L98.7386 386.195L113.177 371.757H84.3008Z" fill="white" stroke="#3855E1" stroke-miterlimit="10" stroke-linejoin="round"/>
<path d="M98.7388 386.195V435.085" stroke="#3855E1" stroke-miterlimit="10" stroke-linejoin="round"/>
<path d="M179.584 327.454L182.269 332.896L188.274 333.768L183.929 338.004L184.955 343.985L179.584 341.161L174.213 343.985L175.238 338.004L170.893 333.768L176.898 332.896L179.584 327.454Z" fill="white" stroke="#3855E1" stroke-miterlimit="10" stroke-linejoin="round"/>
<path d="M164.236 414.781C164.236 418.253 161.422 421.067 157.95 421.067C154.479 421.067 151.664 418.253 151.664 414.781C151.664 411.309 154.479 408.494 157.95 408.494C161.422 408.494 164.236 411.309 164.236 414.781Z" fill="white" stroke="#3855E1" stroke-miterlimit="10" stroke-linejoin="round"/>
<path d="M181.986 435.804C181.986 437.655 180.486 439.156 178.635 439.156C176.784 439.156 175.284 437.655 175.284 435.804C175.284 433.953 176.784 432.453 178.635 432.453C180.486 432.453 181.986 433.953 181.986 435.804Z" fill="white" stroke="#3855E1" stroke-miterlimit="10" stroke-linejoin="round"/>
<path d="M430.372 241.533L436.316 253.578L449.608 255.509L439.99 264.885L442.261 278.123L430.372 271.873L418.483 278.123L420.754 264.885L411.136 255.509L424.428 253.578L430.372 241.533Z" fill="white" stroke="#3855E1" stroke-miterlimit="10" stroke-linejoin="round"/>
<path d="M382.867 426.005V442.304" stroke="#3855E1" stroke-miterlimit="10" stroke-linejoin="round"/>
<path d="M391.017 434.155H374.718" stroke="#3855E1" stroke-miterlimit="10" stroke-linejoin="round"/>
<path d="M369.806 379.5L358.281 391.025" stroke="#3855E1" stroke-miterlimit="10" stroke-linejoin="round"/>
<path d="M369.806 391.025L358.281 379.5" stroke="#3855E1" stroke-miterlimit="10" stroke-linejoin="round"/>
<path d="M762.802 412.211L751.277 423.736" stroke="#3855E1" stroke-miterlimit="10" stroke-linejoin="round"/>
<path d="M762.802 423.736L751.277 412.211" stroke="#3855E1" stroke-miterlimit="10" stroke-linejoin="round"/>
<path d="M865.996 256.547V272.846" stroke="#3855E1" stroke-miterlimit="10" stroke-linejoin="round"/>
<path d="M874.146 264.697H857.846" stroke="#3855E1" stroke-miterlimit="10" stroke-linejoin="round"/>
<path d="M852.935 210.042L841.409 221.567" stroke="#3855E1" stroke-miterlimit="10" stroke-linejoin="round"/>
<path d="M852.935 221.567L841.409 210.042" stroke="#3855E1" stroke-miterlimit="10" stroke-linejoin="round"/>
<path d="M502.543 423.367C523.588 402.322 523.588 368.202 502.543 347.158C481.499 326.113 447.379 326.113 426.334 347.158C405.289 368.202 405.29 402.322 426.334 423.367C447.379 444.411 481.499 444.411 502.543 423.367Z" fill="white" stroke="#3855E1" stroke-miterlimit="10"/>
<path d="M464.439 420.062C483.658 420.062 499.238 404.481 499.238 385.262C499.238 366.043 483.658 350.463 464.439 350.463C445.219 350.463 429.639 366.043 429.639 385.262C429.639 404.481 445.219 420.062 464.439 420.062Z" fill="white" stroke="#3855E1" stroke-miterlimit="10"/>
<path d="M482.471 385.262C482.471 395.221 474.398 403.295 464.438 403.295C454.479 403.295 446.406 395.221 446.406 385.262C446.406 375.303 454.479 367.229 464.438 367.229C474.398 367.229 482.471 375.303 482.471 385.262Z" fill="white" stroke="#3855E1" stroke-miterlimit="10"/>
<path d="M464.439 385.262H542.435" stroke="#3855E1" stroke-miterlimit="10"/>
<path d="M531.749 377.103H550.013L542.435 385.262H524.171L531.749 377.103Z" fill="white" stroke="#3855E1" stroke-miterlimit="10"/>
<path d="M531.749 393.422H550.013L542.435 385.262H524.171L531.749 393.422Z" fill="white" stroke="#3855E1" stroke-miterlimit="10"/>
<path d="M531.749 377.103H550.013L542.435 385.262H524.171L531.749 377.103Z" fill="white" stroke="#3855E1" stroke-miterlimit="10"/>
<path d="M340.9 311.43C353.978 311.43 364.581 300.828 364.581 287.749C364.581 274.67 353.978 264.068 340.9 264.068C327.821 264.068 317.218 274.67 317.218 287.749C317.218 300.828 327.821 311.43 340.9 311.43Z" fill="white" stroke="#3855E1" stroke-miterlimit="10"/>
<path d="M353.284 275.365C360.124 282.204 360.124 293.294 353.284 300.133C346.444 306.973 335.355 306.973 328.515 300.133C321.675 293.294 321.675 282.204 328.515 275.365C335.355 268.525 346.444 268.525 353.284 275.365Z" fill="white" stroke="#3855E1" stroke-miterlimit="10"/>
<path d="M333.441 295.208C329.321 291.088 329.321 284.409 333.441 280.29V295.208Z" fill="white"/>
<path d="M333.441 295.208C329.321 291.088 329.321 284.409 333.441 280.29" stroke="#3855E1" stroke-miterlimit="10"/>
<path d="M357.645 304.494C355.966 306.173 354.094 307.538 352.105 308.607L385.055 341.557C387.72 344.222 392.042 344.222 394.707 341.557H394.708C397.373 338.891 397.373 334.57 394.708 331.904L361.758 298.954C360.688 300.943 359.324 302.815 357.645 304.494Z" fill="white" stroke="#3855E1" stroke-miterlimit="10"/>
<path d="M175.468 281.402H147.203C143.918 281.402 141.255 284.065 141.255 287.35C141.255 290.635 143.918 293.298 147.203 293.298H181.415C185.639 293.298 189.062 289.874 189.062 285.651C189.062 281.427 185.639 278.004 181.415 278.004H130.598C125.436 278.004 121.252 282.188 121.252 287.35C121.252 292.512 125.436 296.696 130.598 296.696H172.548" stroke="#3855E1" stroke-miterlimit="10"/>
<path d="M1002.57 381.282H744.476L717.322 366.794L744.476 352.305H1002.57V381.282Z" fill="white" stroke="#3855E1" stroke-miterlimit="10"/>
<path d="M1019.31 352.305H1002.57V381.282H1019.31V352.305Z" fill="white" stroke="#3855E1" stroke-miterlimit="10"/>
<path d="M1019.31 381.282V352.305C1026.05 352.305 1031.52 357.773 1031.52 364.519V369.069C1031.52 375.814 1026.05 381.282 1019.31 381.282Z" fill="white" stroke="#3855E1" stroke-miterlimit="10"/>
<path d="M744.476 352.305V381.282" stroke="#3855E1" stroke-miterlimit="10"/>
<path d="M1002.57 366.794H744.476" stroke="#3855E1" stroke-miterlimit="10"/>
<path d="M1010.94 352.305V382.187" stroke="#3855E1" stroke-miterlimit="10"/>
<path d="M726.747 361.765V372.114" stroke="#3855E1" stroke-miterlimit="10"/>
<path d="M604.302 253.445H542.435V315.312H604.302V253.445Z" fill="white" stroke="#3855E1" stroke-miterlimit="10"/>
<path d="M624.997 256.885L566.57 236.542L546.226 294.969L604.653 315.312L624.997 256.885Z" fill="white" stroke="#3855E1" stroke-miterlimit="10"/>
<path d="M990.919 270.758V248.656H982.207C981.631 246.887 980.91 245.187 980.077 243.552L986.249 237.38L970.62 221.751L964.448 227.923C962.813 227.09 961.113 226.369 959.344 225.793V217.081H937.242V225.793C935.473 226.369 933.773 227.09 932.138 227.923L925.966 221.751L910.338 237.38L916.509 243.552C915.676 245.187 914.955 246.887 914.379 248.656H905.667V270.758H914.379C914.955 272.527 915.676 274.227 916.509 275.862L910.338 282.034L925.966 297.663L932.138 291.491C933.773 292.324 935.473 293.045 937.242 293.621V302.333H959.344V293.621C961.113 293.045 962.813 292.324 964.448 291.491L970.62 297.663L986.249 282.034L980.077 275.862C980.91 274.227 981.631 272.527 982.207 270.758H990.919Z" fill="white" stroke="#3855E1" stroke-miterlimit="10"/>
<path d="M948.293 282.441C960.848 282.441 971.027 272.263 971.027 259.707C971.027 247.152 960.848 236.973 948.293 236.973C935.737 236.973 925.559 247.152 925.559 259.707C925.559 272.263 935.737 282.441 948.293 282.441Z" fill="white" stroke="#3855E1" stroke-miterlimit="10"/>
<path d="M1056.88 324.481V310.146H1051.23C1050.86 308.998 1050.39 307.896 1049.85 306.835L1053.85 302.832L1043.71 292.696L1039.71 296.699C1038.65 296.159 1037.55 295.69 1036.4 295.317V289.667H1022.07V295.317C1020.92 295.69 1019.82 296.159 1018.76 296.699L1014.75 292.696L1004.62 302.832L1008.62 306.835C1008.08 307.896 1007.61 308.998 1007.24 310.146H1001.59V324.481H1007.24C1007.61 325.628 1008.08 326.731 1008.62 327.791L1004.62 331.794L1014.75 341.93L1018.76 337.928C1019.82 338.468 1020.92 338.936 1022.07 339.309V344.96H1036.4V339.309C1037.55 338.936 1038.65 338.468 1039.71 337.928L1043.71 341.93L1053.85 331.794L1049.85 327.791C1050.39 326.731 1050.86 325.628 1051.23 324.481H1056.88Z" fill="white" stroke="#3855E1" stroke-miterlimit="10"/>
<path d="M1029.23 332.058C1037.38 332.058 1043.98 325.456 1043.98 317.313C1043.98 309.17 1037.38 302.568 1029.23 302.568C1021.09 302.568 1014.49 309.17 1014.49 317.313C1014.49 325.456 1021.09 332.058 1029.23 332.058Z" fill="white" stroke="#3855E1" stroke-miterlimit="10"/>
<path d="M792.038 184.791H696.913V306.336H792.038V184.791Z" fill="white" stroke="#3855E1" stroke-miterlimit="10"/>
<path d="M779.682 195.768H684.557V317.313H779.682V195.768Z" fill="white" stroke="#3855E1" stroke-miterlimit="10"/>
<path d="M713.507 204.609H695.409V222.706H713.507V204.609Z" fill="white" stroke="#3855E1" stroke-miterlimit="10"/>
<path d="M713.507 232.395H695.409V250.493H713.507V232.395Z" fill="white" stroke="#3855E1" stroke-miterlimit="10"/>
<path d="M713.507 260.181H695.409V278.279H713.507V260.181Z" fill="white" stroke="#3855E1" stroke-miterlimit="10"/>
<path d="M713.507 287.967H695.409V306.065H713.507V287.967Z" fill="white" stroke="#3855E1" stroke-miterlimit="10"/>
<path d="M730.594 200.609L713.426 217.777L704.048 208.4" fill="white"/>
<path d="M730.594 200.609L713.426 217.777L704.048 208.4" stroke="#3855E1" stroke-miterlimit="10"/>
<path d="M730.594 228.395L713.426 245.563L704.048 236.186" fill="white"/>
<path d="M730.594 228.395L713.426 245.563L704.048 236.186" stroke="#3855E1" stroke-miterlimit="10"/>
<path d="M730.594 256.181L713.426 273.35L704.048 263.972" fill="white"/>
<path d="M730.594 256.181L713.426 273.35L704.048 263.972" stroke="#3855E1" stroke-miterlimit="10"/>
<path d="M722.374 297.016H767.526" stroke="#3855E1" stroke-miterlimit="10"/>
<path d="M775.863 458.717V475.016" stroke="#3855E1" stroke-miterlimit="10" stroke-linejoin="round"/>
<path d="M784.013 466.866H767.713" stroke="#3855E1" stroke-miterlimit="10" stroke-linejoin="round"/>
<path d="M262.328 188.821H242.157V200.188H262.328V188.821Z" fill="white" stroke="#3855E1" stroke-miterlimit="10"/>
<path d="M252.243 270.235C272.806 270.235 289.476 253.565 289.476 233.001C289.476 212.438 272.806 195.768 252.243 195.768C231.679 195.768 215.009 212.438 215.009 233.001C215.009 253.565 231.679 270.235 252.243 270.235Z" fill="white" stroke="#3855E1" stroke-miterlimit="10"/>
<path d="M252.243 261.394C267.923 261.394 280.635 248.682 280.635 233.001C280.635 217.321 267.923 204.609 252.243 204.609C236.562 204.609 223.85 217.321 223.85 233.001C223.85 248.682 236.562 261.394 252.243 261.394Z" fill="white" stroke="#3855E1" stroke-miterlimit="10"/>
<path d="M252.243 236.765C254.322 236.765 256.007 235.08 256.007 233.001C256.007 230.922 254.322 229.237 252.243 229.237C250.164 229.237 248.479 230.922 248.479 233.001C248.479 235.08 250.164 236.765 252.243 236.765Z" fill="white" stroke="#3855E1" stroke-miterlimit="10"/>
<path d="M264.084 188.821H240.402C237.786 188.821 235.666 186.701 235.666 184.085C235.666 181.469 237.786 179.349 240.402 179.349H264.084C266.699 179.349 268.82 181.469 268.82 184.085C268.82 186.701 266.699 188.821 264.084 188.821Z" fill="white" stroke="#3855E1" stroke-miterlimit="10"/>
<path d="M252.243 204.609L252.23 211.24" stroke="#3855E1" stroke-miterlimit="10"/>
<path d="M252.243 255.129L252.23 261.76" stroke="#3855E1" stroke-miterlimit="10"/>
<path d="M280.812 233.19L274.181 233.178" stroke="#3855E1" stroke-miterlimit="10"/>
<path d="M230.291 233.19L223.661 233.178" stroke="#3855E1" stroke-miterlimit="10"/>
<path d="M261.507 215.976L254.702 230.173" stroke="#3855E1" stroke-miterlimit="10"/>
<path d="M262.328 240.604L254.702 235.83" stroke="#3855E1" stroke-miterlimit="10"/>
<g clip-path="url(#clip0)">
<path d="M432.453 633.086H345.344V870H286.75V633.086H200.812V585.625H432.453V633.086ZM603.156 811.406H500.422L480.891 870H418.586L524.445 585.625H578.742L685.188 870H622.883L603.156 811.406ZM516.242 763.945H587.336L551.594 657.5L516.242 763.945ZM859.211 795.391C859.211 784.323 855.305 775.859 847.492 770C839.68 764.01 825.617 757.76 805.305 751.25C784.992 744.609 768.911 738.099 757.062 731.719C724.771 714.271 708.625 690.768 708.625 661.211C708.625 645.846 712.922 632.174 721.516 620.195C730.24 608.086 742.674 598.646 758.82 591.875C775.096 585.104 793.326 581.719 813.508 581.719C833.82 581.719 851.919 585.43 867.805 592.852C883.69 600.143 895.995 610.495 904.719 623.906C913.573 637.318 918 652.552 918 669.609H859.406C859.406 656.589 855.305 646.497 847.102 639.336C838.898 632.044 827.375 628.398 812.531 628.398C798.208 628.398 787.076 631.458 779.133 637.578C771.19 643.568 767.219 651.51 767.219 661.406C767.219 670.651 771.841 678.398 781.086 684.648C790.461 690.898 804.198 696.758 822.297 702.227C855.63 712.253 879.914 724.688 895.148 739.531C910.383 754.375 918 772.865 918 795C918 819.609 908.69 838.945 890.07 853.008C871.451 866.94 846.385 873.906 814.875 873.906C793 873.906 773.078 869.935 755.109 861.992C737.141 853.919 723.404 842.917 713.898 828.984C704.523 815.052 699.836 798.906 699.836 780.547H758.625C758.625 811.927 777.375 827.617 814.875 827.617C828.807 827.617 839.68 824.818 847.492 819.219C855.305 813.49 859.211 805.547 859.211 795.391ZM1046.91 755.938L1016.44 788.75V870H957.844V585.625H1016.44V714.531L1042.22 679.18L1114.68 585.625H1186.75L1085.77 711.992L1189.68 870H1119.95L1046.91 755.938Z" fill="#9ABCED"/>
<path d="M1280.74 911.328H30.2557C26.8009 911.328 24 908.522 24 905.061V904.395C24 900.934 26.8009 898.128 30.2557 898.128H1280.74C1284.2 898.128 1287 900.934 1287 904.395V905.061C1287 908.522 1284.2 911.328 1280.74 911.328Z" fill="#3855E1"/>
<path d="M791.42 534.185C796.347 535.576 819.902 543.528 831.974 549.201C830.214 550.727 828.747 552.604 827.678 554.672C813.946 553.285 792.218 549.052 787.605 547.75C780.831 545.838 776.194 541.252 777.248 537.506C778.301 533.76 784.646 532.273 791.42 534.185Z" fill="#D45239"/>
<path d="M770.909 494.797C775.437 503.685 790.226 543.11 785.045 545.758C779.865 548.407 756.675 513.276 752.148 504.389C747.62 495.5 748.15 486.148 753.331 483.499C758.512 480.851 766.382 485.909 770.909 494.797Z" fill="#D45239"/>
<path d="M700.105 481.44C704.419 474.159 721.289 467.726 721.289 467.726L728.951 444.525C730.278 441.571 733.199 439.659 736.432 439.628L737.742 439.616C742.036 439.575 746.381 438.317 749.552 435.416C751.613 433.53 754.55 432.595 757.715 433.322C760.945 434.064 763.52 436.602 764.313 439.825C765.771 445.758 761.358 451.094 755.659 451.148C754.751 451.157 753.89 450.99 753.061 450.748L753.095 454.303L733.034 454.494C738.457 456.433 742.733 461.127 743.91 466.874C745.523 474.755 741.613 481.851 735.389 485.238C737.169 489.096 737.834 493.579 736.84 498.309C735.048 506.842 727.782 513.458 719.138 514.487C706.684 515.968 696.046 506.324 695.929 494.111C695.884 489.353 697.857 485.236 700.105 481.44Z" fill="#FAC855"/>
<path d="M745.588 487.175L728.153 485.496L737.053 467.576L745.417 469.206L745.588 487.175Z" fill="#FA968C"/>
<path d="M783.629 546.033C795.61 542.979 837.181 531.947 840.249 544.024C843.316 556.101 802.978 587.694 786.052 591.98C763.255 597.754 750.971 581.208 747.904 569.131C744.837 557.054 771.647 549.087 783.629 546.033Z" fill="#5A325A"/>
<path d="M716.79 483.171L756.061 482.796C762.66 482.733 767.031 497.358 767.031 497.358L773.656 516.341C775.887 522.735 771.189 529.433 764.428 529.498L764.038 529.502L767.038 570.053L727.283 570.058L727.74 548.961L708.668 494.786C706.683 489.148 710.824 483.228 716.79 483.171Z" fill="#C8462D"/>
<path d="M732.046 494.152C738.104 503.075 759.294 543.372 754.093 546.916C748.892 550.46 719.269 515.908 713.211 506.985C707.153 498.062 706.459 487.956 711.66 484.412C716.861 480.868 725.989 485.229 732.046 494.152Z" fill="#D45239"/>
<path d="M841.896 577.131C850.505 583.618 914.972 628.356 911.538 631.03C908.874 633.105 900.182 626.601 892.474 623.776C871.763 616.187 834.476 600.094 828.203 595.366C819.595 588.879 815.682 579.537 819.464 574.502C823.245 569.466 833.289 570.643 841.896 577.131Z" fill="#FA968C"/>
<path d="M755.752 531.859C761.571 527.894 799.524 504.9 801.709 508.118C803.894 511.336 769.482 539.547 763.664 543.512C757.845 547.476 751.356 548.081 749.172 544.864C746.987 541.646 749.934 535.823 755.752 531.859Z" fill="#FAB9AF"/>
<path d="M755.752 531.859C759.594 529.241 777.434 518.335 789.749 512.148C790.012 514.8 792.011 519.652 793.411 521.875C783.35 531.287 767.311 541.026 763.663 543.512C757.845 547.476 751.357 548.081 749.172 544.864C746.987 541.646 749.933 535.823 755.752 531.859Z" fill="#D45239"/>
<path d="M764.328 451.364C764.376 456.355 760.376 460.439 755.394 460.487C750.412 460.534 746.335 456.527 746.288 451.537C746.241 446.546 750.241 442.462 755.222 442.414C760.204 442.367 764.281 446.374 764.328 451.364Z" fill="#FAC855"/>
<path d="M776.146 557.831C790.507 559.796 840.52 566.209 838.838 578.556C837.155 590.903 779.921 603.921 759.643 601.121C732.332 597.349 725.809 577.211 727.491 564.864C729.174 552.517 761.784 555.867 776.146 557.831Z" fill="#823264"/>
<path d="M755.836 452.695C755.978 467.589 743.604 471.047 735.289 471.126C726.974 471.206 727.458 458.883 727.397 452.484C727.336 446.085 733.983 442.617 742.298 442.538C750.612 442.458 755.776 446.296 755.836 452.695Z" fill="#FAC855"/>
<path d="M755.445 457.368C755.529 466.201 752.739 480.314 746.044 480.378C739.349 480.442 732.031 470.421 731.947 461.588C731.863 452.755 735.711 447.611 742.406 447.547C749.101 447.483 755.361 448.535 755.445 457.368Z" fill="#FAB9AF"/>
<path d="M732.145 458.125L749.101 457.963C750.888 457.946 753.992 456.698 755.349 455.737C755.288 449.41 752.144 446.283 742.406 447.547C736.69 448.288 732.997 451.429 732.145 458.125Z" fill="#FF9669"/>
<path d="M749.085 456.317L729.572 456.504L729.535 452.607C729.49 447.955 733.219 444.149 737.861 444.104L757.427 443.917L757.464 447.762C757.509 452.442 753.757 456.273 749.085 456.317Z" fill="#FAC855"/>
<path d="M735.213 463.105L735.121 453.382L739.357 453.342L739.409 458.82C739.432 461.164 737.553 463.083 735.213 463.105Z" fill="#FAC855"/>
<path d="M736.813 461.208C736.841 464.131 735.944 466.509 733.569 466.532C731.193 466.554 730.162 463.183 730.134 460.259C730.106 457.336 731.092 455.969 733.468 455.946C735.843 455.923 736.785 458.284 736.813 461.208Z" fill="#FAB9AF"/>
<path d="M899.799 619.835C899.799 619.835 911.163 624.878 916.264 625.66C921.365 626.441 940.302 622.952 937.725 628.835C937.725 628.835 922.076 636.776 917.485 637.872C911.708 639.253 910.247 631.439 900.655 627.563L899.799 619.835Z" fill="#FA968C"/>
<path d="M926.068 625.452C932.606 625.142 939.329 625.175 937.726 628.835C937.726 628.835 922.077 636.775 917.486 637.872C913.656 638.787 911.712 635.661 908.05 632.32C914.335 633.858 921.259 632.187 926.068 625.452Z" fill="#C8462D"/>
<path d="M817.873 493.443L818.496 493.612C818.659 493.656 818.826 493.56 818.87 493.397L819.814 489.906C819.859 489.743 819.763 489.575 819.6 489.531L818.976 489.362C818.814 489.318 818.646 489.414 818.602 489.577L817.658 493.068C817.614 493.231 817.71 493.399 817.873 493.443Z" fill="#C8E6EB"/>
<path d="M801.424 510.518C800.423 510.725 799.562 509.793 799.845 508.809L805.063 488.08C805.202 487.6 805.592 487.235 806.08 487.129L818.743 484.397C819.737 484.182 820.604 485.098 820.339 486.081L814.691 506.987C814.558 507.482 814.158 507.859 813.657 507.963L801.424 510.518Z" fill="#C8E6EB"/>
<path d="M807.147 488.798C807.286 488.318 807.676 487.953 808.165 487.848L819.663 485.367C819.858 485.324 820.062 485.387 820.201 485.533C820.339 485.679 820.392 485.886 820.339 486.081L814.692 506.987C814.558 507.482 814.158 507.859 813.657 507.962L801.192 510.547C801.083 510.28 801.029 509.989 801.118 509.677L807.147 488.798Z" fill="white"/>
<path d="M800.286 502.076C799.792 503.803 798.637 505.274 797.105 506.208C795.357 507.274 793.359 508.808 793.314 510.269C793.234 512.876 793.657 514.641 797.44 514.901C801.224 515.16 806.539 513.71 809.551 512.201C812.565 510.693 819.114 504.949 819.211 504.168C819.566 501.323 811.829 505.71 809.247 507.189C806.665 508.667 802.57 510.205 802.211 508.758C801.852 507.312 804.822 499.493 803.187 498.749C801.765 498.102 800.828 500.178 800.286 502.076Z" fill="#FAB9AF"/>
<path d="M810.192 493.803C809.782 495.482 810.373 497.069 811.511 497.347C812.649 497.627 813.904 496.492 814.314 494.812C814.724 493.133 814.133 491.546 812.995 491.268C811.856 490.988 810.601 492.124 810.192 493.803Z" fill="#C8E6EB"/>
<path d="M849.147 549.302C854.721 557.508 896.661 622.871 893.48 624.278C890.722 625.498 837.186 570.47 831.612 562.264C826.038 554.058 825.445 544.503 830.288 540.924C835.13 537.345 843.573 541.096 849.147 549.302Z" fill="#FAB9AF"/>
<path d="M884.267 606.832C884.267 606.832 892.548 616.116 896.875 618.933C901.202 621.75 919.893 626.384 915.126 630.683C915.126 630.683 897.601 631.461 892.967 630.565C887.135 629.439 889.017 621.716 881.87 614.226L884.267 606.832Z" fill="#FAB9AF"/>
<path d="M905.894 622.789C911.978 625.205 918.091 628.009 915.126 630.682C915.126 630.682 897.601 631.461 892.967 630.565C889.101 629.819 888.615 626.168 886.651 621.613C891.746 625.607 898.743 626.942 905.894 622.789Z" fill="#C8462D"/>
<path d="M440.142 931.789C440.142 940.742 478.246 948 525.252 948C572.256 948 610.362 940.742 610.362 931.789C610.362 922.836 572.256 915.579 525.252 915.579C478.246 915.579 440.142 922.836 440.142 931.789Z" fill="#3855E1"/>
<path d="M542.275 762.19C538.142 781.597 520.777 785.974 509.943 783.659C499.108 781.343 503.579 761.981 505.355 753.642C507.131 745.303 516.78 742.727 527.614 745.043C538.449 747.358 544.051 753.851 542.275 762.19Z" fill="#CD5014"/>
<path d="M525.252 797.871L506.037 799.508L511.872 767.839L522.271 778.955L525.252 797.871Z" fill="#FA968C"/>
<path d="M563.211 808.999C569.249 820.126 590.258 874.283 582.936 878.271C575.614 882.259 542.734 834.567 536.695 823.441C530.657 812.314 531.698 800.062 539.019 796.074C546.342 792.086 557.172 797.873 563.211 808.999Z" fill="#FAB9AF"/>
<path d="M481.629 840.555C469.894 860.843 451.898 872.393 447.005 869.525C441.889 866.528 447.402 846.215 458.304 826.387C469.597 805.849 482.112 791.767 489.5 796.056C496.888 800.344 493.363 820.267 481.629 840.555Z" fill="#FAB9AF"/>
<path d="M551.863 846.462C544.894 836.758 538.939 827.575 536.695 823.441C530.657 812.314 531.698 800.062 539.019 796.074C546.342 792.086 557.172 797.873 563.211 808.999C565.534 813.281 570.067 823.926 574.351 835.636C567.285 845.751 551.863 846.462 551.863 846.462Z" fill="#82BE50"/>
<path d="M458.304 826.387C469.597 805.849 482.112 791.767 489.5 796.056C496.507 800.123 493.684 818.257 483.363 837.425C483.363 837.425 463.212 834.767 458.304 826.387Z" fill="#82BE50"/>
<path d="M488.878 795.091L543.623 794.792C554.534 794.732 562.311 805.378 558.955 815.779L529.296 907.671C525.756 918.64 515.086 925.673 503.629 924.589C491.683 923.459 482.303 913.842 481.451 901.851L474.939 810.166C474.363 802.05 480.756 795.136 488.878 795.091Z" fill="#FA968C"/>
<path d="M488.878 795.091L505.638 795C504.009 801.188 506.75 808.651 514.915 809.728C524.404 810.98 529.043 802.044 527.334 794.881L543.623 794.792C554.534 794.732 562.311 805.378 558.955 815.779L529.297 907.671C525.756 918.64 515.086 925.673 503.629 924.589C491.683 923.459 482.303 913.841 481.451 901.851L474.939 810.166C474.363 802.049 480.756 795.136 488.878 795.091Z" fill="#82BE50"/>
<path d="M476.502 871.022C485.105 874.865 527.973 897.184 525.801 902.065C523.628 906.946 477.047 891.055 468.65 886.777C453.23 878.921 443.367 870.714 445.54 865.833C447.712 860.952 467.898 867.179 476.502 871.022Z" fill="#FAB9AF"/>
<path d="M583.07 912.575C567.516 917.308 468.466 940.962 464.686 932.969C463.232 929.892 558.223 886.662 573.777 881.929C589.33 877.195 604.02 880.218 606.586 888.681C609.152 897.144 598.624 907.842 583.07 912.575Z" fill="#FA968C"/>
<path d="M499.095 914.507C527.495 901.036 564.566 884.732 573.777 881.929C589.331 877.195 604.02 880.218 606.586 888.681C609.153 897.144 598.624 907.842 583.07 912.575C573.8 915.396 537.085 926.633 506.342 932.19C504.989 925.701 503.231 918.566 499.095 914.507Z" fill="#003C63"/>
<path d="M538.177 773.385C535.202 787.353 531.045 793.65 523.881 792.119C515.156 790.254 506.181 778.313 508.632 766.803C511.084 755.293 517.58 749.723 526.304 751.588C535.028 753.452 540.628 761.875 538.177 773.385Z" fill="#FAB9AF"/>
<path d="M509.894 762.358L531.989 767.08C534.319 767.578 536.628 767.306 538.671 766.451C538.062 758.575 533.156 753.052 526.303 751.588C518.794 749.983 512.943 753.899 509.894 762.358Z" fill="#FF9669"/>
<path d="M532.446 764.936L507.019 759.501L508.1 754.423C509.391 748.362 515.342 744.497 521.393 745.79L546.889 751.239L545.822 756.248C544.523 762.348 538.535 766.237 532.446 764.936Z" fill="#CD5014"/>
<path d="M512.44 769.726L515.138 757.056L520.659 758.236L519.138 765.375C518.488 768.43 515.489 770.377 512.44 769.726Z" fill="#CD5014"/>
<path d="M515.07 767.724C514.259 771.533 512.404 774.365 509.308 773.703C506.212 773.042 505.341 767.379 506.152 763.569C506.963 759.76 509.15 759.248 512.245 759.91C515.341 760.571 515.881 763.915 515.07 767.724Z" fill="#FAB9AF"/>
<path d="M571.353 886.624C562.637 889.602 514.233 902.621 512.604 897.838C510.976 893.056 556.741 872.283 565.457 869.305C574.173 866.327 582.56 867.79 584.188 872.572C585.816 877.355 580.07 883.646 571.353 886.624Z" fill="#FAB9AF"/>
<path d="M486.027 921.922C486.027 921.922 485.745 922.738 477.275 921.89C468.804 921.042 467.792 917.618 461.226 925.701C454.66 933.784 438.756 934.515 438.31 938.534C437.864 942.554 501.675 930.212 501.675 930.212L486.027 921.922Z" fill="#FA968C"/>
<path d="M461.226 925.701C467.792 917.618 468.804 921.042 477.275 921.89C477.29 921.891 477.3 921.892 477.316 921.893C470.069 923.828 466.057 929.976 465.274 936.604C451.044 938.822 438.109 940.351 438.31 938.534C438.756 934.515 454.659 933.784 461.226 925.701Z" fill="#373C41"/>
<path d="M524.89 887.775C524.89 887.775 533.26 891.039 533.112 893.929C532.965 896.818 532.337 898.731 528.131 898.673C523.925 898.615 518.182 896.527 514.989 894.585C511.795 892.643 507.815 887.125 507.778 886.252C507.645 883.075 513.06 887.202 515.78 889.072C518.5 890.942 521.758 892.783 522.286 891.217C522.814 889.652 517.336 886.463 517.349 884.468C517.362 882.474 524.89 887.775 524.89 887.775Z" fill="#FAB9AF"/>
<path d="M509.448 905.346L566.161 898.587C568.771 898.276 570.737 896.059 570.737 893.425V857.272C570.737 854.158 568.022 851.742 564.935 852.11L508.222 858.868C505.611 859.18 503.646 861.397 503.646 864.031V900.183C503.646 903.298 506.361 905.714 509.448 905.346Z" fill="#AFE6FF"/>
<path d="M529.2 879.433C529.2 885.618 533.101 890.632 537.915 890.632C542.727 890.632 546.629 885.618 546.629 879.433C546.629 873.248 542.727 868.234 537.915 868.234C533.101 868.234 529.2 873.248 529.2 879.433Z" fill="#D2F0FF"/>
<path d="M475.165 879.618C490.952 883.499 574.726 918.046 575.77 927.827C575.998 929.962 481.738 919.738 465.951 915.857C450.163 911.976 440.002 899.442 442.342 889.889C444.682 880.335 459.377 875.737 475.165 879.618Z" fill="#FAB9AF"/>
<path d="M555.223 913.13C555.223 913.13 562.902 917.252 571.376 918.06C579.85 918.868 581.503 915.705 586.386 924.907C591.269 934.109 606.732 937.905 606.394 941.935C606.056 945.965 545.83 921.501 545.83 921.501L555.223 913.13Z" fill="#FAB9AF"/>
<path d="M570.084 917.877C570.516 917.935 570.938 918.018 571.376 918.06C579.85 918.868 581.503 915.705 586.386 924.907C591.27 934.109 606.732 937.905 606.394 941.935C606.243 943.733 594.166 939.855 580.838 935.012C580.987 927.825 577.399 920.56 570.084 917.877Z" fill="#373C41"/>
<path d="M442.342 889.889C444.682 880.335 459.378 875.737 475.165 879.618C484.308 881.866 516.243 894.399 541.717 906.451C539.993 913.13 538.254 923.552 538.736 928.117C510.919 925.248 474.865 918.049 465.95 915.857C450.163 911.976 440.002 899.442 442.342 889.889Z" fill="#0073AA"/>
<path d="M1212.64 926.32C1253.64 926.32 1286.87 922.204 1286.87 917.125C1286.87 912.047 1253.64 907.93 1212.64 907.93C1171.65 907.93 1138.41 912.047 1138.41 917.125C1138.41 922.204 1171.65 926.32 1212.64 926.32Z" fill="#3855E1"/>
<path d="M1091.59 598.531C1086.43 606.264 1061.2 650.121 1065.43 652.952C1069.65 655.784 1101.74 616.517 1106.9 608.784C1112.06 601.051 1112.82 592.487 1108.59 589.655C1104.36 586.824 1096.75 590.798 1091.59 598.531Z" fill="#FAB9AF"/>
<path d="M1162.43 574.749C1150.81 575.33 1098.29 585.205 1098.7 593.389C1099.11 601.573 1152.28 604.967 1163.9 604.386C1175.52 603.805 1184.61 596.7 1184.2 588.516C1183.8 580.332 1174.05 574.168 1162.43 574.749Z" fill="#FAB9AF"/>
<path d="M1138.58 578.433C1148.9 576.352 1158.28 574.956 1162.43 574.749C1174.05 574.168 1183.8 580.332 1184.2 588.516C1184.61 596.7 1175.52 603.805 1163.9 604.386C1159.45 604.609 1148.87 604.244 1137.5 603.25C1137.5 603.25 1133.07 590.673 1138.58 578.433Z" fill="#1C9585"/>
<path d="M1183.56 879.952L1183.48 901.324L1187.19 913.467C1187.44 914.303 1186.82 915.147 1185.94 915.147H1177.5V912.443L1173.4 915.147C1173.4 915.147 1151.55 916.355 1150.8 915.147C1147.99 910.591 1160.7 908.837 1170 905.231C1179.3 901.625 1172.88 866.254 1172.88 866.254L1183.56 879.952Z" fill="#FA968C"/>
<path d="M1161.45 800.339C1163.02 811.598 1177.54 899.305 1181.15 897.919C1184.28 896.717 1186.79 808.263 1185.21 797.005C1183.64 785.746 1177.04 777.365 1170.48 778.286C1163.92 779.207 1159.87 789.08 1161.45 800.339Z" fill="#FA968C"/>
<path d="M1173.4 884.517C1168.29 858.49 1162.39 807.085 1161.45 800.339C1159.87 789.08 1163.92 779.207 1170.48 778.286C1177.04 777.365 1183.64 785.746 1185.21 797.005C1186.18 803.945 1187.02 857.43 1185.7 884.517H1173.4Z" fill="#004875"/>
<path d="M1245.38 864.376L1254.29 888.556C1254.29 888.556 1258.34 891.107 1259.99 893.511C1260.95 894.909 1262.26 896.764 1263.2 898.072C1263.85 898.996 1263.74 900.259 1262.93 901.052L1258.74 905.158C1257.94 905.942 1256.66 905.92 1255.89 905.109L1254.86 904.029L1252.57 909.532C1251.77 911.444 1250.04 912.787 1247.99 913.062C1242.73 913.769 1233.02 914.899 1232.69 913.645C1231.67 909.724 1246.04 904.48 1246.04 904.48L1247.54 891.858L1241.06 876.251L1245.38 864.376Z" fill="#FAB9AF"/>
<path d="M1203.68 800.078C1208.28 810.473 1246.24 890.832 1249.34 888.507C1252.02 886.491 1230.22 800.739 1225.62 790.344C1221.03 779.949 1212.39 773.702 1206.33 776.389C1200.27 779.077 1199.09 789.683 1203.68 800.078Z" fill="#FAB9AF"/>
<path d="M1206.33 776.39C1212.39 773.702 1221.03 779.949 1225.62 790.344C1228.61 797.093 1245.61 848.548 1251.69 875.287L1240.45 878.889C1228.32 855.147 1206.48 806.401 1203.68 800.078C1199.09 789.683 1200.27 779.078 1206.33 776.39Z" fill="#0073AA"/>
<path d="M1071.26 658.585C1071.26 658.585 1074.09 649.971 1071.76 648.231C1069.42 646.491 1067.53 645.753 1064.88 649.067C1062.22 652.38 1060.16 658.193 1059.62 661.927C1059.07 665.661 1060.8 672.303 1061.46 672.892C1063.84 675.035 1064.11 668.168 1064.4 664.849C1064.7 661.53 1065.36 657.811 1066.91 658.405C1068.47 658.998 1067.43 665.312 1068.98 666.582C1070.54 667.851 1071.26 658.585 1071.26 658.585Z" fill="#FAB9AF"/>
<path d="M1152.54 695.785C1152.17 712.2 1157.78 816.32 1169.3 816.582C1180.82 816.844 1193.89 713.148 1194.26 696.733C1194.63 680.319 1185.6 666.8 1174.08 666.538C1162.56 666.276 1152.91 679.371 1152.54 695.785Z" fill="#004875"/>
<path d="M1183.49 692.51C1183.12 708.925 1196.18 803.098 1207.7 803.36C1219.22 803.622 1226.92 709.59 1227.29 693.175C1227.67 676.761 1216.55 663.525 1205.03 663.264C1193.51 663.002 1183.86 676.096 1183.49 692.51Z" fill="#0073AA"/>
<path d="M1215.11 580.001L1171.08 573.947C1157.54 572.085 1146.15 584.028 1148.62 597.49L1153.15 717.037L1226.83 689.924C1227.05 689.836 1227.19 689.62 1227.19 689.383L1226.29 665.052C1226.29 665.025 1226.29 664.997 1226.29 664.969L1233.14 603.179C1234.39 591.834 1226.4 581.553 1215.11 580.001Z" fill="#007D72"/>
<path d="M1183.89 579.115C1183.89 579.115 1183.89 586.664 1188.57 586.664C1199.87 586.662 1202.81 578.31 1202.81 578.31L1199.16 558.522L1186.89 560.043L1183.89 579.115Z" fill="#FA968C"/>
<path d="M1172.03 535.308C1172.03 555.315 1188.24 563.29 1199.41 563.29C1210.58 563.29 1210.23 543.256 1210.23 534.66C1210.23 526.063 1201.26 521.49 1190.09 521.49C1178.92 521.49 1172.03 526.711 1172.03 535.308Z" fill="#965028"/>
<path d="M1173.72 547.21C1173.72 561.611 1176.5 568.696 1183.89 568.696C1192.88 568.696 1204.24 558.813 1204.24 546.947C1204.24 535.081 1199 528.22 1190.01 528.22C1181.02 528.22 1173.72 535.344 1173.72 547.21Z" fill="#FAB9AF"/>
<path d="M1203.93 542.298H1181.15C1178.75 542.298 1176.53 541.542 1174.69 540.269C1176.95 532.631 1182.94 528.22 1190.01 528.22C1197.75 528.22 1202.7 533.314 1203.93 542.298Z" fill="#FF9669"/>
<path d="M1181.15 540.087H1207.36V534.852C1207.36 528.603 1202.31 523.537 1196.07 523.537H1169.78V528.702C1169.78 534.99 1174.87 540.087 1181.15 540.087Z" fill="#965028"/>
<path d="M1199.87 549.026V535.964H1194.18V543.325C1194.18 546.474 1196.73 549.026 1199.87 549.026Z" fill="#965028"/>
<path d="M1197.7 546.498C1197.7 550.424 1198.93 553.608 1202.12 553.608C1205.31 553.608 1207.36 548.207 1207.36 544.281C1207.36 540.354 1205.31 539.388 1202.12 539.388C1198.93 539.388 1197.7 542.571 1197.7 546.498Z" fill="#FAB9AF"/>
<path d="M1208.03 571.266L1219.69 551.074C1220.16 550.252 1220.13 549.231 1219.61 548.438L1214.22 540.229C1213.21 538.69 1210.95 538.73 1209.99 540.304L1196.59 562.368C1195.96 563.405 1196.16 564.745 1197.06 565.551L1204.2 571.886C1205.38 572.94 1207.23 572.64 1208.03 571.266Z" fill="#50555A"/>
<path d="M1209.88 563.462C1207.57 566.989 1209.79 572.114 1213.64 573.81C1215.17 574.484 1216.9 574.567 1218.68 573.384C1224.38 569.597 1222.23 545.032 1218.3 542.222C1214.93 539.818 1218.3 550.636 1209.88 563.462Z" fill="#FAB9AF"/>
<path d="M1221.75 627.274C1232.31 648.842 1249.75 661.993 1254.87 659.451C1260.22 656.792 1255.94 635.679 1246.19 614.644C1236.09 592.854 1224.35 577.547 1216.62 581.345C1208.9 585.142 1211.19 605.705 1221.75 627.274Z" fill="#FA968C"/>
<path d="M1218.72 620.543C1210.84 601.582 1209.71 584.744 1216.62 581.345C1224.35 577.547 1236.09 592.854 1246.19 614.644C1247.11 616.617 1218.72 620.543 1218.72 620.543Z" fill="#1C9585"/>
<path d="M1249.49 621.856C1245.02 611.408 1222.31 566.326 1216.4 568.863C1210.49 571.4 1225.41 620.853 1230.41 631.059C1239.59 649.803 1249.29 661.846 1255.2 659.308C1261.1 656.77 1253.96 632.304 1249.49 621.856Z" fill="#FAB9AF"/>
<path d="M1170 905.231C1172.89 904.111 1174.25 899.923 1174.77 894.689H1183.51L1183.48 901.324L1187.19 913.467C1187.44 914.302 1186.82 915.147 1185.94 915.147H1177.5V912.443L1173.4 915.147C1173.4 915.147 1151.55 916.354 1150.8 915.147C1147.99 910.591 1160.7 908.837 1170 905.231Z" fill="white"/>
<path d="M1246.04 904.48L1247.54 891.858L1245.3 886.468C1248.19 886.287 1250.65 885.485 1252.69 884.22L1254.29 888.556C1254.29 888.556 1258.34 891.107 1259.99 893.511C1260.95 894.909 1262.26 896.764 1263.2 898.072C1263.85 898.996 1263.74 900.259 1262.93 901.053L1258.74 905.158C1257.94 905.942 1256.66 905.92 1255.89 905.109L1254.86 904.029L1252.57 909.532C1251.77 911.444 1250.04 912.787 1247.99 913.063C1242.73 913.769 1233.02 914.899 1232.69 913.645C1231.67 909.724 1246.04 904.48 1246.04 904.48Z" fill="white"/>
<path d="M1169.99 905.236C1171.32 905.569 1172.74 905.796 1174.31 905.796C1178.25 905.796 1181.45 904.652 1183.94 902.802L1187.19 913.467C1187.44 914.302 1186.82 915.147 1185.95 915.147H1177.5V912.443L1173.4 915.147C1173.4 915.147 1151.55 916.354 1150.8 915.147C1147.99 910.593 1160.69 908.839 1169.99 905.236Z" fill="#AA321E"/>
<path d="M1246.04 904.48L1246.59 899.87C1251.41 898.045 1254.45 894.107 1255.74 889.547C1257.07 890.509 1258.98 892.035 1259.99 893.511C1260.95 894.909 1262.26 896.764 1263.2 898.072C1263.85 898.996 1263.74 900.259 1262.93 901.053L1258.74 905.158C1257.94 905.942 1256.66 905.92 1255.89 905.109L1254.86 904.029L1252.57 909.533C1251.77 911.444 1250.04 912.787 1247.99 913.063C1242.73 913.77 1233.02 914.899 1232.69 913.645C1231.67 909.724 1246.04 904.48 1246.04 904.48Z" fill="#AA321E"/>
<path d="M436.117 598.616C436.117 598.616 442.195 606.431 442.732 609.354C443.27 612.277 445.551 616.591 449.436 615.099C452.321 613.991 455.578 612.963 457.789 611.852C459.689 610.897 461.188 609.326 462.056 607.381C463.589 603.95 465.918 598.673 466.168 597.749C466.544 596.359 462.469 596.905 459.78 601.591C457.091 606.276 447.905 606.135 442.304 596.513L436.117 598.616Z" fill="#FA968C"/>
<path d="M307.349 463.185C307.349 470.245 301.635 475.968 294.588 475.968C287.541 475.968 281.828 470.245 281.828 463.185C281.828 456.125 287.541 450.402 294.588 450.402C301.635 450.402 307.349 456.125 307.349 463.185Z" fill="#3C5A73"/>
<path d="M408.883 528.894C413.729 537.789 449.87 608.282 446.55 609.213C443.671 610.02 394.954 548.055 390.107 539.161C385.261 530.266 385.535 520.757 390.72 517.922C395.905 515.087 404.037 519.999 408.883 528.894Z" fill="#FA968C"/>
<path d="M438.332 587.796C428.155 566 412.01 534.633 408.883 528.894C404.037 519.999 395.905 515.087 390.72 517.922C385.535 520.757 385.261 530.266 390.107 539.161C393.355 545.122 416.299 574.905 431.952 593.669C433.343 591.137 435.471 589.035 438.332 587.796Z" fill="#00558C"/>
<path d="M303.874 466.553C295.228 467.455 288.747 458.651 291.556 450.41L294.113 442.907C295.341 440.241 298.005 438.533 300.936 438.533H302.123C321.567 438.511 320.273 433 320.273 433C323.199 433.699 325.516 436.026 326.206 438.959C327.472 444.347 323.427 449.141 318.264 449.141C317.44 449.141 306.462 458.073 307.478 463.292C307.885 465.38 306.31 466.299 303.874 466.553Z" fill="#3C5A73"/>
<path d="M308.825 481.707L293.037 480.034L301.257 463.869L308.825 465.419V481.707Z" fill="#FA968C"/>
<path d="M318.411 450.545C318.411 464.044 307.166 467.072 299.629 467.072C292.092 467.072 292.636 455.908 292.636 450.107C292.636 444.306 298.691 441.221 306.228 441.221C313.764 441.221 318.411 444.744 318.411 450.545Z" fill="#3C5A73"/>
<path d="M318.015 454.777C318.015 462.783 315.365 475.55 309.297 475.55C303.228 475.55 296.681 466.404 296.681 458.398C296.681 450.391 300.214 445.762 306.282 445.762C312.351 445.762 318.015 446.77 318.015 454.777Z" fill="#FAB9AF"/>
<path d="M296.891 455.261H312.261C313.881 455.261 316.705 454.157 317.943 453.298C317.943 447.562 315.119 444.7 306.282 445.762C301.096 446.385 297.721 449.199 296.891 455.261Z" fill="#FF9669"/>
<path d="M312.261 453.769H294.573V450.237C294.573 446.02 297.985 442.602 302.194 442.602H319.929V446.087C319.929 450.33 316.496 453.769 312.261 453.769Z" fill="#3C5A73"/>
<path d="M299.629 459.801V450.988H303.469V455.954C303.469 458.078 301.75 459.801 299.629 459.801Z" fill="#3C5A73"/>
<path d="M301.095 458.095C301.095 460.744 300.262 462.892 298.109 462.892C295.956 462.892 295.05 459.827 295.05 457.178C295.05 454.528 295.956 453.297 298.109 453.297C300.262 453.297 301.095 455.445 301.095 458.095Z" fill="#FAB9AF"/>
<path d="M329.859 496.825C331.581 507.204 333.901 551.553 327.851 552.56C321.801 553.568 309.672 510.854 307.95 500.474C306.228 490.095 309.736 480.864 315.786 479.857C321.836 478.849 328.136 486.446 329.859 496.825Z" fill="#FA968C"/>
<path d="M312.345 518.167C315.753 514.763 320.558 512.547 326.792 512.547C328.395 512.547 329.895 512.706 331.312 512.979C330.93 505.957 330.369 499.898 329.859 496.825C328.136 486.446 321.835 478.849 315.785 479.857C309.736 480.864 306.227 490.095 307.95 500.474C308.508 503.838 310.162 510.601 312.345 518.167Z" fill="#FF965A"/>
<path d="M328.865 536.512C335.223 533.929 376.108 519.811 377.531 523.328C378.955 526.844 340.378 546.663 334.019 549.246C327.661 551.829 321.352 551.072 319.929 547.556C318.506 544.04 322.506 539.095 328.865 536.512Z" fill="#FA968C"/>
<path d="M332.427 512.636L326.144 494.066L326.382 491.754C327.04 485.342 322.019 479.767 315.585 479.767H277.293C271.475 479.767 267.383 485.501 269.266 491.016L287.358 544.012L292.986 562.168L318.729 566.261L322.928 525.378H323.308C329.901 525.378 334.544 518.891 332.427 512.636Z" fill="#F07D4B"/>
<path d="M329.51 546.498C343.384 538.177 391.44 508.895 397.44 518.935C403.44 528.976 354.396 579.551 341.183 588.888C314.302 607.885 295.834 589.914 298.356 573.25C300.107 561.68 315.636 554.819 329.51 546.498Z" fill="#00558C"/>
<path d="M364.251 646.134C361.592 655.833 338.902 731.134 335.89 729.507C333.279 728.095 341.119 650.201 343.777 640.502C346.436 630.803 353.174 624.201 358.828 625.756C364.482 627.311 366.909 636.434 364.251 646.134Z" fill="#FAB9AF"/>
<path d="M358.828 625.756C353.175 624.201 346.436 630.803 343.778 640.502C342.099 646.625 338.359 679.913 336.483 703.992C337.135 703.94 337.79 703.894 338.476 703.894C341.238 703.894 343.709 704.342 345.917 705.118C353.456 682.698 362.62 652.083 364.251 646.134C366.909 636.434 364.482 627.311 358.828 625.756Z" fill="#0073AA"/>
<path d="M327.902 576.492C337.886 589.081 372.92 632.626 363.842 639.851C354.764 647.076 298.687 605.337 287.791 593.532C265.623 569.515 280.863 548.965 297.56 549.276C309.152 549.492 317.919 563.903 327.902 576.492Z" fill="#0073AA"/>
<path d="M335.882 712.734C335.882 712.734 334.379 721.939 332.288 726.82C330.197 731.701 331.775 732.491 334.17 737.203C337.798 744.339 337.639 751.501 339.811 751.606C341.973 751.709 343.45 748.869 340.357 734.469C339.201 729.087 341.036 721.777 341.769 717.511L335.882 712.734Z" fill="#FAB9AF"/>
<path d="M459.78 601.591C458.891 603.14 457.284 604.146 455.339 604.472C453.004 608.141 449.014 610.75 443.342 610.75C443.26 610.75 443.185 610.739 443.104 610.738C444.002 613.44 446.133 616.368 449.436 615.099C452.321 613.991 455.578 612.963 457.789 611.853C459.689 610.898 461.188 609.326 462.056 607.382C463.589 603.95 465.918 598.673 466.168 597.749C466.544 596.359 462.468 596.905 459.78 601.591Z" fill="#C34646"/>
<path d="M332.872 725.294C332.682 725.831 332.489 726.35 332.288 726.82C330.197 731.701 331.775 732.491 334.17 737.203C337.797 744.339 337.639 751.501 339.811 751.606C341.935 751.708 343.387 748.942 340.506 735.196C336.35 733.28 333.812 729.499 332.872 725.294Z" fill="#C34646"/>
<path d="M376.025 515.211C376.025 515.211 370.833 520.938 372.053 523.105C373.272 525.272 374.487 526.503 377.702 524.843C380.917 523.183 384.537 519.37 386.252 516.649C387.966 513.928 388.917 508.153 388.611 507.467C387.499 504.971 384.91 510.226 383.532 512.71C382.155 515.194 380.353 517.862 379.347 516.86C378.341 515.858 381.337 511.3 380.563 509.77C379.79 508.24 376.025 515.211 376.025 515.211Z" fill="#FA968C"/>
<path d="M377.079 527.874L374.815 527.084C373.815 526.735 373.286 525.64 373.635 524.638L382.809 498.242C383.157 497.24 384.25 496.71 385.251 497.059L387.514 497.849C388.515 498.198 389.043 499.293 388.695 500.295L379.521 526.691C379.172 527.693 378.079 528.222 377.079 527.874Z" fill="#E4F2F6"/>
<path d="M373.989 514.047C374.665 511.187 376.845 510.064 377.14 509.981C377.435 509.899 377.752 509.963 377.991 510.155C379.418 511.297 381.577 513.394 379.576 514.337C376.753 515.667 376.225 517.187 376.225 517.187L373.416 518.982C373.416 518.982 373.313 516.907 373.989 514.047Z" fill="#FA968C"/>
<path d="M283.387 501.439C280.601 511.584 264.122 552.81 258.208 551.18C252.295 549.55 259.187 505.682 261.973 495.537C264.759 485.392 271.811 478.49 277.725 480.12C283.638 481.749 286.173 491.295 283.387 501.439Z" fill="#FAB9AF"/>
<path d="M276.329 517.906C276.635 518.121 276.9 518.353 277.189 518.576C280.141 511.279 282.485 504.726 283.387 501.439C286.173 491.295 283.638 481.749 277.725 480.12C271.811 478.49 264.759 485.392 261.973 495.537C261.012 499.037 259.563 506.55 258.318 514.958C263.796 513.07 270.138 513.556 276.329 517.906Z" fill="#FF965A"/>
<path d="M269.784 542.873C276.4 544.696 317.425 558.401 316.42 562.059C315.415 565.717 272.761 557.945 266.145 556.121C259.53 554.298 254.982 549.854 255.986 546.195C256.991 542.537 263.169 541.049 269.784 542.873Z" fill="#FAB9AF"/>
<path d="M309.272 562.291C309.272 562.291 322.492 563.586 324.396 562.818C326.3 562.05 335.532 558.029 334.103 557.09C332.673 556.151 326.987 556.994 323.164 558.181C319.341 559.369 318.578 556.709 312.004 557.442C310.382 557.623 309.272 562.291 309.272 562.291Z" fill="#FAB9AF"/>
<path d="M339.417 551.763L352.212 515.996C353.887 511.313 356.629 508.503 361.595 508.503L343.78 558.139V558.14H294.233C294.233 554.792 296.943 552.077 300.285 552.077L339.417 551.763Z" fill="#E4F2F6"/>
<path d="M184.362 698.617H166.444V759.076H184.362V698.617Z" fill="#69280F"/>
<path d="M135.912 831.838C118.834 843.302 59.1484 882.758 67.415 895.118C75.6818 907.477 160.34 878.437 178.227 868.286C214.616 847.636 204.014 816.613 183.521 810.474C169.292 806.212 152.99 820.374 135.912 831.838Z" fill="#50374B"/>
<path d="M154.608 760.616C152.738 773.362 150.917 827.708 158.346 828.802C165.776 829.896 179.643 777.324 181.513 764.578C183.384 751.832 178.877 740.612 171.447 739.518C164.017 738.424 156.478 747.87 154.608 760.616Z" fill="#FAB9AF"/>
<path d="M156.738 809.179C148.894 806.163 98.5162 789.823 96.8544 794.16C95.1927 798.498 142.876 821.871 150.72 824.887C158.563 827.903 166.269 826.831 167.93 822.494C169.592 818.156 164.581 812.195 156.738 809.179Z" fill="#FAB9AF"/>
<path d="M169.83 845.366L218.987 839.963L207.724 817.404L228.655 752.106C230.833 745.311 225.693 738.386 218.57 738.52L171.692 739.403C163.815 739.552 157.795 746.492 158.749 754.327L169.83 845.366Z" fill="#D25A50"/>
<path d="M186.872 754.785L159.682 755.297L151.827 780.031C149.38 787.737 155.213 795.573 163.283 795.421L174.031 795.218L186.872 754.785Z" fill="#D25A50"/>
<path d="M202.581 756.238C198.482 768.449 187.062 821.608 194.18 824.006C201.298 826.404 224.258 777.131 228.357 764.92C232.456 752.709 230.008 740.866 222.89 738.468C215.772 736.071 206.679 744.026 202.581 756.238Z" fill="#FAB9AF"/>
<path d="M96.4769 896.819C109.32 897.476 209.857 900.074 209.091 895.751C208.426 892.002 110.706 870.268 97.8623 869.611C85.0187 868.955 74.2969 874.514 73.9143 882.027C73.5318 889.54 83.6333 896.163 96.4769 896.819Z" fill="#FAB9AF"/>
<path d="M183.936 812.431C175.879 814.816 125.969 832.539 127.283 836.995C128.597 841.45 180.638 830.951 188.695 828.566C196.752 826.181 202.218 820.635 200.904 816.18C199.59 811.724 191.993 810.046 183.936 812.431Z" fill="#FAB9AF"/>
<path d="M160.413 838.364C140.596 843.844 69.9887 867.465 73.9715 883.465C77.5649 897.9 168.916 890.304 189.086 886.326C230.121 878.232 229.831 845.443 212.318 833.14C200.158 824.599 180.229 832.884 160.413 838.364Z" fill="#695A6E"/>
<path d="M183.123 888.17C183.123 888.17 202.547 894.402 205.263 888.166C207.979 881.931 212.541 880.891 216.293 884.647C217.555 885.911 219.827 888.727 222.129 890.246C228.547 894.481 238.458 895.729 238.672 897.772C238.964 900.547 229.185 899.393 223.277 898.694C210.881 897.224 198.502 898.804 179.877 898.16L183.123 888.17Z" fill="#FAB9AF"/>
<path d="M93.3849 790.439C93.3849 790.439 98.1998 798.592 101.171 797.944C104.142 797.297 106.018 796.317 105.239 791.95C104.461 787.583 101.315 781.963 98.7559 778.971C96.1966 775.979 89.7939 772.78 88.8829 772.891C85.5656 773.294 90.77 778.226 93.1736 780.737C95.5774 783.248 98.0435 786.323 96.5099 787.14C94.9765 787.957 90.7336 782.802 88.6681 783.156C86.6023 783.51 93.3849 790.439 93.3849 790.439Z" fill="#FAB9AF"/>
<path d="M87.8903 838.406L71.4476 795.028C69.295 789.349 65.8818 785.981 59.8188 786.095L82.7086 846.291V846.292L143.206 845.152C143.129 841.064 139.759 837.813 135.678 837.889L87.8903 838.406Z" fill="#0091C8"/>
<path d="M136.08 832.304C136.08 832.304 119.961 830.134 117.597 830.99C115.233 831.845 103.759 836.357 105.466 837.569C107.175 838.78 114.169 838.002 118.9 836.718C121.614 835.981 125.358 837.153 127.66 837.725C129.524 838.189 131.494 837.711 132.895 836.394L136.08 832.304Z" fill="#FAB9AF"/>
<path d="M163.367 700.497C165.196 741.244 181.821 723.768 191.975 722.276C202.128 720.783 199.149 702.618 198.004 694.803C196.86 686.989 187.844 680.298 177.69 681.79C167.537 683.282 163.013 692.607 163.367 700.497Z" fill="#69280F"/>
<path d="M176.445 770.56C185.721 772.96 197.608 738.915 197.608 738.915L194.028 712.818L182.767 724.176L180.682 739.234C180.682 739.234 168.298 768.452 176.445 770.56Z" fill="#FA968C"/>
<path d="M166.488 711.091C168.405 724.181 176.433 730.015 177.936 729.912C183.276 729.544 189.527 723.805 192.418 717.673C193.99 714.338 194.747 710.573 194.191 706.774C192.611 695.987 186.938 690.45 178.763 691.652C170.587 692.854 164.908 700.304 166.488 711.091Z" fill="#FAB9AF"/>
<path d="M193.985 701.05L196.118 700.12L195.529 696.099C194.666 690.211 188.898 686.372 183.146 687.856L169.068 691.49C173.384 700.948 184.466 705.2 193.985 701.05Z" fill="#69280F"/>
<path d="M190.497 709.248L188.758 697.374L183.584 698.135L184.564 704.825C184.984 707.688 187.64 709.668 190.497 709.248Z" fill="#69280F"/>
<path d="M188.185 707.24C188.707 710.809 190.253 713.538 193.154 713.112C196.055 712.685 197.199 707.502 196.676 703.933C196.153 700.363 194.162 699.759 191.261 700.185C188.36 700.612 187.662 703.67 188.185 707.24Z" fill="#FAB9AF"/>
<path d="M202.25 774.506C196.228 774.506 191.346 769.615 191.346 763.583V685.32C197.368 685.32 202.25 690.211 202.25 696.243V774.506Z" fill="#69280F"/>
<path d="M175.403 693.821C175.403 693.821 173.444 702.226 162.285 706.611L163.872 695.088C163.872 695.088 168.444 685.436 175.403 693.821Z" fill="#69280F"/>
</g>
<defs>
<clipPath id="clip0">
<rect width="1263" height="515" fill="white" transform="translate(24 433)"/>
</clipPath>
</defs>
</svg>
